<svg version="1.1" id="Layer_1" xmlns="http://www.w3.org/2000/svg" xmlns:xlink="http://www.w3.org/1999/xlink" x="0px" y="0px"
	 width="100%" viewBox="0 0 1024 1024" enable-background="new 0 0 1024 1024" xml:space="preserve">
<path fill="#000000" opacity="1.000000" stroke="none" 
	d="
M400.635010,628.461426 
	C387.616241,623.205688 376.812714,615.164551 366.509186,606.544434 
	C363.701172,607.128906 362.655273,609.398804 361.214294,611.128113 
	C358.311157,614.611938 355.126373,617.721863 351.176086,620.020508 
	C348.279022,621.706299 345.330383,621.921387 342.809784,619.703857 
	C340.209351,617.416138 340.479401,614.459717 341.834229,611.452332 
	C344.264221,606.058167 348.326263,601.759766 351.949188,597.305725 
	C361.802307,585.192261 372.058777,573.387695 382.553284,561.821777 
	C389.476685,554.191589 397.001648,547.096130 404.423767,539.933777 
	C408.976562,535.540344 409.087799,534.621643 403.745300,531.052490 
	C382.829468,517.079285 362.501953,502.354858 344.286041,484.903595 
	C343.829224,484.465973 343.176788,484.232544 342.236603,483.681915 
	C338.264160,488.427887 334.110229,492.943634 330.462891,497.836945 
	C321.599854,509.727539 311.945068,520.966248 301.584534,531.510620 
	C295.560638,537.641357 289.337646,543.764771 282.020599,548.526001 
	C279.186249,550.370300 276.161560,551.722717 273.428925,549.010376 
	C270.644684,546.246704 271.323364,542.855347 273.390320,539.855408 
	C277.279266,534.211060 282.078827,529.317932 286.878082,524.484009 
	C291.258453,520.071899 291.248810,515.971741 288.168579,510.737213 
	C279.531067,496.058533 272.644562,480.508972 267.866455,464.169556 
	C263.912262,450.647675 261.024475,436.837250 259.615753,422.764069 
	C258.506897,411.686554 257.513733,400.573944 257.956360,389.459259 
	C259.386505,353.548218 266.747131,319.001953 282.633820,286.530334 
	C283.218719,285.334808 283.828888,284.145660 284.515717,283.006927 
	C288.353180,276.644562 287.880981,275.978546 282.246338,270.790710 
	C277.046356,266.003021 271.517212,261.382172 268.168182,254.848297 
	C266.463196,251.521912 266.887665,248.779984 269.476746,246.269196 
	C272.114105,243.711578 275.037659,244.417419 277.783844,245.906982 
	C281.621735,247.988754 284.779449,251.020309 287.832886,254.075577 
	C302.773438,269.025269 318.032990,283.684479 332.406555,299.164337 
	C346.088715,313.899506 359.803375,328.657745 371.926361,344.795441 
	C375.274811,349.252716 378.772583,353.672455 382.413940,358.664093 
	C386.443970,352.803528 387.907562,346.567841 390.034851,340.749023 
	C391.699463,336.195740 393.658356,331.835571 395.708527,327.485870 
	C401.655731,314.867889 406.761505,301.757599 415.367279,290.610870 
	C419.393005,285.396576 422.812744,279.532928 428.643341,275.869202 
	C432.099518,273.697449 432.339233,271.191010 428.604431,269.137451 
	C417.889648,263.245880 408.759796,255.179062 399.267639,247.657837 
	C391.988708,241.890274 385.579468,235.034698 378.395538,229.135345 
	C367.984985,220.586288 358.437714,211.151215 348.833252,201.754059 
	C346.674347,199.641769 344.598785,197.473984 343.126709,194.843536 
	C341.314178,191.604752 340.346985,187.915970 343.448151,185.213394 
	C346.426300,182.617950 350.387451,182.544434 353.664825,184.955078 
	C357.137604,187.509460 360.356781,190.448273 363.456268,193.456635 
	C365.572632,195.510788 367.287659,195.498505 369.452606,193.652252 
	C379.401459,185.167786 390.677460,178.710770 402.225677,172.754242 
	C417.310120,164.973740 433.061859,158.946899 449.492249,154.490692 
	C463.325500,150.738846 477.335602,148.270554 491.535034,146.916336 
	C505.934814,145.543015 520.317139,145.666977 534.792175,147.245468 
	C548.041992,148.690338 561.056641,150.893738 573.826599,154.531082 
	C584.216309,157.490463 594.494629,160.825668 604.400940,165.229813 
	C607.972778,166.817780 610.794739,169.630585 614.932251,170.453888 
	C618.047180,171.073715 618.427551,177.273849 615.920715,180.989548 
	C613.178101,185.054733 609.450806,188.211731 605.439514,190.855286 
	C592.228638,199.561554 580.757629,210.471375 568.255676,220.080017 
	C549.324097,234.630371 531.337830,250.402527 511.145294,263.303589 
	C508.149750,265.217438 504.759918,266.121857 501.711212,267.781738 
	C490.002838,274.156403 479.418243,282.217773 468.813660,290.213135 
	C464.052795,293.802582 459.725586,297.962311 455.087128,301.722015 
	C453.753967,302.802643 452.034241,304.419250 450.224792,302.798706 
	C448.562531,301.310028 449.668365,299.584778 450.376251,297.802124 
	C455.113190,285.872955 463.740540,277.331421 473.967072,270.099884 
	C475.701111,268.873749 477.234436,267.363800 479.708527,265.265869 
	C473.606812,263.889923 468.803772,265.670593 464.289978,267.430695 
	C451.096497,272.575378 442.207764,283.234406 433.075226,293.299103 
	C424.763123,302.459656 418.887939,313.253693 413.612396,324.510864 
	C407.496399,337.561523 401.336700,350.601959 395.104095,363.602753 
	C392.898865,368.202637 392.855621,373.036407 393.602631,377.779785 
	C394.139404,381.188263 397.106445,382.759705 400.929871,383.475525 
	C405.882446,373.683167 411.030640,363.990417 417.806030,355.365204 
	C423.240112,348.447540 428.964111,341.739838 434.874786,335.225006 
	C436.648651,333.269806 439.836151,332.287689 442.168335,334.304047 
	C444.656372,336.455231 442.119232,338.483459 440.955902,340.350769 
	C431.144043,356.100433 420.936737,371.616455 412.291443,388.688660 
	C418.745850,391.982483 424.962830,395.313385 431.330597,398.325378 
	C433.813873,399.499969 435.198212,397.439728 436.503479,395.577362 
	C444.411957,384.293549 451.337341,372.299377 461.066528,362.329163 
	C463.567322,359.766418 466.104797,357.520386 469.386322,356.156403 
	C470.823181,355.559174 472.334564,355.305817 473.590454,356.537903 
	C474.962830,357.884247 474.157104,359.248383 473.523743,360.642212 
	C469.581055,369.318359 464.106323,376.974182 458.550323,384.687164 
	C453.845001,391.219177 449.888550,398.328796 444.513306,405.111115 
	C451.413513,408.893341 458.011383,412.633453 464.732666,416.136780 
	C467.666351,417.665894 468.989288,414.885925 470.268890,413.160126 
	C475.315308,406.353973 479.859924,399.154694 485.182617,392.580536 
	C490.264038,386.304382 494.036224,378.739380 501.515717,374.633362 
	C503.159698,373.730896 504.853424,371.632507 506.794983,373.630676 
	C508.358307,375.239532 507.775146,377.391205 506.838379,379.261963 
	C504.227875,384.475128 501.433289,389.589264 497.858795,394.217102 
	C490.773804,403.389862 485.755188,413.837128 478.999939,423.878235 
	C484.115540,426.407867 488.830872,428.764984 493.570984,431.071075 
	C495.472076,431.996002 496.876587,431.019867 497.785675,429.490417 
	C512.800598,404.228882 537.531982,389.814606 560.411804,373.335724 
	C562.416138,371.892151 564.476685,370.885406 563.950745,367.535553 
	C563.545471,364.954620 566.363525,363.326080 567.763000,361.316162 
	C576.030151,349.442871 584.498230,337.710754 591.616150,325.076233 
	C592.631042,323.274841 593.488831,320.349792 597.537292,322.783783 
	C589.547485,338.043488 580.116516,352.274384 568.586975,365.706451 
	C572.373108,364.662598 581.867676,356.910156 585.611572,352.449982 
	C595.223450,340.999084 602.653259,328.392090 607.914490,314.313141 
	C613.101379,300.433105 622.402405,288.997101 631.854309,277.763367 
	C641.841797,265.893005 653.539978,255.718842 664.268982,244.616486 
	C670.109863,238.572388 677.625244,234.366547 682.348633,226.964081 
	C684.551392,223.511902 689.445129,221.718124 693.231323,219.352188 
	C696.700256,217.184525 700.502502,216.796356 703.042175,220.410904 
	C705.387329,223.748596 705.131348,227.615967 702.576172,231.083405 
	C701.802795,232.132889 700.324341,232.593094 700.009399,234.424866 
	C708.131836,243.394760 715.156677,253.419189 721.940308,263.690887 
	C737.349854,287.023773 747.897156,312.345428 754.395874,339.438049 
	C759.299622,359.881378 761.966370,380.655273 761.223694,401.649506 
	C759.954346,437.531708 753.062378,472.232300 736.702454,504.544525 
	C734.119263,509.646576 734.192444,513.313354 738.533997,517.257690 
	C743.081360,521.388916 747.245605,525.966492 751.343140,530.557922 
	C753.415466,532.880127 755.380920,535.409058 755.377136,538.908203 
	C755.374451,541.402649 755.009583,543.676514 752.715332,544.956543 
	C750.462158,546.213623 748.135315,545.672729 746.133789,544.220093 
	C739.923828,539.713196 734.145081,534.683899 728.542725,529.447815 
	C716.277588,517.984497 704.700012,505.789856 693.081787,493.725739 
	C683.709595,483.993866 674.732788,473.544495 667.366150,461.986664 
	C663.852844,456.474457 663.168213,456.664520 659.945740,462.144287 
	C653.127991,473.737579 645.897339,485.042816 637.967957,495.959381 
	C628.405701,509.123901 618.369385,521.804565 606.264160,533.391052 
	C608.843811,535.663086 610.998901,537.668457 613.264771,539.539673 
	C629.200195,552.699585 643.656494,567.402405 658.051453,582.183594 
	C664.977722,589.295837 672.152649,596.171875 679.365662,602.995605 
	C681.693481,605.197815 683.796326,607.550537 685.487244,610.203308 
	C687.503113,613.365723 688.285217,616.831360 684.899292,619.633484 
	C681.845276,622.160950 678.357239,622.211243 675.285828,619.710693 
	C670.771606,616.035583 666.226074,612.333618 662.177795,608.172363 
	C658.950806,604.855469 656.552856,604.884033 653.066528,607.766724 
	C638.569214,619.753967 622.288147,628.795288 604.831848,635.660034 
	C592.771362,640.402954 580.273499,643.643188 567.650269,646.722412 
	C554.663757,649.890259 541.526855,651.141418 528.409973,652.895569 
	C519.804077,654.046448 511.081390,653.638367 502.451965,653.228821 
	C487.199890,652.504883 472.011597,651.025940 457.028503,647.730469 
	C437.609772,643.459473 418.865204,637.327271 400.635010,628.461426 
M585.606873,373.135773 
	C581.972168,376.213989 578.055908,379.024567 574.222778,381.738617 
	C558.224060,393.066589 541.879578,403.936340 527.369080,417.177429 
	C516.975952,426.661316 507.429047,436.392578 509.935486,452.875916 
	C511.550995,463.500000 508.153564,474.292694 507.100098,485.017761 
	C505.962433,496.599854 501.984222,506.884735 494.103119,515.940063 
	C479.469940,532.753540 466.335205,550.836243 451.289917,567.324646 
	C447.598572,571.370056 444.295654,575.822693 440.285461,579.513733 
	C431.050629,588.013672 424.344147,598.603027 416.110260,607.916626 
	C413.692871,610.651062 413.893433,612.441650 417.658661,614.240173 
	C428.062103,619.209656 438.920074,622.778137 450.015076,625.681152 
	C468.566223,630.535095 487.506012,632.705078 506.626678,633.542297 
	C508.823669,633.638550 510.456177,633.151917 511.587006,631.063721 
	C513.405823,627.705017 515.542114,624.517456 517.341675,621.149414 
	C527.716736,601.730774 540.176208,583.703369 553.574829,566.277222 
	C562.429199,554.761169 572.968994,544.794678 583.217041,534.651917 
	C603.617065,514.461548 622.446289,493.168762 637.853088,468.814850 
	C648.230042,452.411774 657.091431,435.467896 662.758606,416.873566 
	C664.224487,412.063904 663.564514,407.659393 661.340454,403.403351 
	C660.091675,401.013641 658.279602,400.151855 656.502502,403.028778 
	C653.807556,407.391693 651.060608,411.732147 648.592224,416.223145 
	C644.452454,423.755157 639.202637,430.336823 632.478210,435.679626 
	C630.263611,437.439240 627.529236,439.476288 624.849731,437.144714 
	C622.124573,434.773346 624.146545,432.032196 625.416565,429.504913 
	C630.864990,418.662689 639.051392,409.435089 643.632629,398.047668 
	C646.289612,391.443176 648.875244,385.013519 645.522217,378.013885 
	C644.208313,375.271240 642.147583,372.558472 638.922791,372.505493 
	C635.829224,372.454681 635.143494,375.815582 633.818420,378.015625 
	C626.510559,390.149658 618.718201,401.886658 607.273560,410.643280 
	C605.969360,411.641174 604.560913,412.649261 603.036499,413.184479 
	C599.161194,414.544952 597.374329,412.968414 597.673157,408.865509 
	C597.802856,407.085388 598.681335,405.680115 599.626526,404.343353 
	C605.175537,396.495758 611.432434,389.180267 616.697998,381.103180 
	C620.690857,374.978333 624.176758,368.615997 627.255127,362.019165 
	C629.092590,358.081604 628.702881,354.071045 627.681763,349.854523 
	C626.183105,343.665924 621.819214,341.004028 616.330139,340.135925 
	C611.724121,339.407532 610.475159,344.029663 608.745300,346.915283 
	C602.757019,356.904266 593.798828,364.196289 585.606873,373.135773 
M636.119812,297.591492 
	C630.312317,304.699524 625.489136,312.399048 621.650818,320.760010 
	C619.834351,324.716827 620.415466,326.810822 624.597900,328.872192 
	C634.095764,333.553375 641.696167,340.448120 642.090759,351.823608 
	C642.278564,357.235321 644.425537,360.007446 648.740479,362.263000 
	C656.222534,366.174133 659.824829,372.902069 660.124756,380.943512 
	C660.301880,385.693604 662.403076,388.296570 665.951172,390.521027 
	C672.137817,394.399750 675.719055,399.979279 676.287781,407.255432 
	C677.026001,416.700653 675.058655,425.785522 671.658020,434.517273 
	C670.443665,437.635468 670.459167,440.058960 672.361145,442.860840 
	C682.368347,457.603455 693.438416,471.487976 705.597290,484.501251 
	C709.505493,488.684052 713.609558,492.683838 717.386780,496.526062 
	C719.770264,495.570312 720.051270,493.997040 720.733459,492.701172 
	C730.202026,474.716248 734.875244,455.238800 738.696228,435.473297 
	C741.674255,420.068665 742.008423,404.524597 741.705444,388.915985 
	C741.385071,372.415649 738.960938,356.222443 734.810669,340.278381 
	C727.953064,313.933685 716.253113,289.803589 701.089722,267.300079 
	C697.467773,261.924805 693.628601,256.682739 689.070923,252.023270 
	C686.289490,249.179764 683.832336,248.264374 680.309143,251.538086 
	C664.865784,265.888000 649.515686,280.301910 636.119812,297.591492 
M513.674011,243.169296 
	C516.541870,241.179596 519.537109,239.349167 522.256348,237.173752 
	C537.297424,225.140915 552.304932,213.065384 567.251953,200.916016 
	C573.422180,195.900696 579.318359,190.549759 585.852234,185.983414 
	C587.273071,184.990433 588.279480,183.470169 588.098694,181.740692 
	C587.915344,179.987183 586.195007,179.786514 584.749878,179.287903 
	C564.199585,172.197769 543.053345,168.257462 521.359680,167.199127 
	C499.279724,166.121933 477.584808,168.611313 456.215332,174.220474 
	C438.605377,178.842850 421.942535,185.868866 405.848877,194.235901 
	C397.212158,198.726089 388.562164,203.306396 380.699280,209.454727 
	C383.703583,213.590073 388.044464,215.395340 391.158234,218.531601 
	C406.328430,233.811386 423.111420,247.054901 441.048950,258.911591 
	C444.208832,261.000275 446.762207,260.690460 449.723389,258.679199 
	C453.543610,256.084503 457.397278,253.695175 462.066559,252.458496 
	C473.760620,249.361298 485.524017,250.729568 497.277740,251.183609 
	C499.221893,251.258713 500.868713,251.136536 502.477875,250.139175 
	C506.008636,247.950851 509.542114,245.766861 513.674011,243.169296 
M491.537689,491.946350 
	C494.145966,479.445435 495.563782,466.784882 496.686493,454.080200 
	C497.045715,450.015503 495.378479,447.653900 491.611664,446.008789 
	C480.379822,441.103546 469.424164,435.718811 458.679047,429.697968 
	C436.490845,417.265228 413.777313,405.747223 390.650116,395.096863 
	C385.089264,392.536011 379.614838,392.710388 374.335602,395.550995 
	C367.107880,399.440002 366.516846,406.038849 372.826813,411.173004 
	C377.218842,414.746552 381.876984,417.924347 386.739899,420.868256 
	C395.670593,426.274628 405.517975,430.214111 413.256287,437.581329 
	C415.193848,439.425964 416.421295,441.421967 416.994873,443.861084 
	C417.851898,447.505615 416.044006,449.214905 412.658203,447.621094 
	C397.079651,440.287811 380.416473,435.048462 366.809906,423.865479 
	C363.176605,420.879333 359.267670,422.501038 358.430786,427.242889 
	C357.615417,431.862946 358.558472,435.957031 361.863617,439.713928 
	C369.065521,447.900208 377.635590,454.425262 386.075714,461.196381 
	C391.068359,465.201752 396.662323,468.809204 399.935516,474.652313 
	C401.227570,476.958710 401.904816,479.381500 399.497986,481.442596 
	C397.213776,483.398743 395.075592,482.047211 393.100372,480.813416 
	C379.592224,472.375763 365.648804,464.519104 354.907257,452.358459 
	C352.348145,449.461182 350.069885,450.356171 348.796234,453.450928 
	C346.608093,458.767853 346.024658,464.176208 350.308380,468.881256 
	C353.888611,472.813721 357.430969,476.830872 361.398682,480.349915 
	C369.602814,487.626404 378.550018,493.981140 387.271759,500.624298 
	C406.778076,515.481812 427.175018,528.821411 449.153870,539.748230 
	C452.369873,541.347046 454.097473,540.637085 456.388550,538.284180 
	C460.697937,533.858521 464.109528,528.725037 468.224182,524.130615 
	C476.911591,514.430420 485.920227,504.843597 491.537689,491.946350 
M333.221588,464.791077 
	C331.208191,455.250031 336.313751,448.136627 341.538574,441.201538 
	C343.135193,439.082367 344.236420,437.323273 343.714813,434.543457 
	C342.638245,428.806671 343.243835,423.105255 346.649994,418.295013 
	C351.076904,412.043121 353.659943,405.451324 354.985229,397.771301 
	C356.370758,389.742218 363.268127,385.328156 370.284546,381.739258 
	C375.148743,379.251221 375.983429,375.731140 372.881744,371.248016 
	C371.750366,369.612671 370.282135,368.214569 369.080688,366.622833 
	C350.330536,341.782593 329.665344,318.624664 307.637299,296.665710 
	C303.537048,292.578339 302.657013,292.706909 299.714172,297.873993 
	C296.251648,303.953674 293.677917,310.427246 291.076630,316.923431 
	C282.842499,337.486084 278.642792,358.941345 277.515839,380.891815 
	C276.657440,397.611511 277.483398,414.308899 280.151855,431.014618 
	C283.731750,453.425842 291.074188,474.369507 301.132263,494.511566 
	C302.497101,497.244812 303.723145,500.213715 306.263336,502.247528 
	C306.882599,501.887024 307.400635,501.728424 307.712250,501.383362 
	C316.631256,491.507568 324.802521,481.023682 332.810974,470.409668 
	C333.904694,468.960052 333.645844,467.249969 333.221588,464.791077 
M629.067871,575.456482 
	C619.666016,565.557129 609.499939,556.473206 599.204346,547.530762 
	C597.483582,546.036133 595.851318,544.132507 593.322083,546.738159 
	C585.935486,554.347839 578.002441,561.465881 571.027527,569.428345 
	C556.435242,586.086487 544.589294,604.718506 533.732544,623.968140 
	C532.354309,626.411804 530.296875,628.826965 530.659119,632.056030 
	C562.667419,632.039001 626.303589,607.499512 642.373840,588.990479 
	C638.116882,584.650879 633.845520,580.296509 629.067871,575.456482 
M386.447906,597.034973 
	C389.426270,599.159668 392.377167,601.324402 395.394897,603.391602 
	C396.845825,604.385437 398.229187,604.896973 399.689178,603.038452 
	C410.467957,589.317749 421.710419,575.996277 433.867310,563.457886 
	C436.808807,560.424133 439.404694,557.055237 442.308685,553.666321 
	C436.461914,549.314209 429.884277,547.252258 423.953033,543.987976 
	C422.483643,543.179260 421.488464,544.288635 420.529388,545.260864 
	C408.290222,557.667969 395.664368,569.700806 384.706635,583.326599 
	C378.845886,590.614441 378.701660,590.498474 386.447906,597.034973 
z"/>
<path fill="#000000" opacity="1.000000" stroke="none" 
	d="
M115.842842,784.034058 
	C94.078125,745.417114 113.227066,693.056274 162.313965,685.241028 
	C182.682205,681.998169 202.601669,684.930359 218.978607,699.620361 
	C225.268906,705.262756 225.253571,707.023132 218.886826,712.378723 
	C215.955139,714.844788 213.172867,717.487854 210.260849,719.978149 
	C207.696503,722.171082 205.321869,722.104553 202.842682,719.546631 
	C191.205200,707.539429 176.921097,705.538696 161.900879,710.579346 
	C146.548904,715.731323 138.679626,727.585999 135.133865,743.292053 
	C131.082642,761.237061 142.725891,784.706604 162.403549,788.751343 
	C176.331909,791.614319 190.049698,790.911255 201.246735,780.310059 
	C204.418396,777.307068 207.047272,777.052856 210.179901,780.275208 
	C213.543716,783.735352 217.227036,786.882385 220.688660,790.250610 
	C224.314178,793.778198 224.332764,795.582214 220.254318,798.733704 
	C206.869736,809.076233 192.018234,815.155457 174.759949,815.483337 
	C149.249527,815.967834 129.705902,805.859558 115.842842,784.034058 
z"/>
<path fill="#000000" opacity="1.000000" stroke="none" 
	d="
M707.504150,750.838989 
	C709.543091,757.206055 709.202454,763.372314 709.438599,769.514709 
	C709.598938,773.684387 708.118652,775.050781 703.993896,775.018799 
	C685.509155,774.875366 667.022461,774.982544 648.536499,774.982361 
	C641.836853,774.982300 640.945068,776.568848 644.325439,782.579468 
	C648.795349,790.527344 660.685974,795.816040 670.090332,794.439270 
	C676.810364,793.455383 683.090698,791.692993 688.340759,787.174622 
	C690.485229,785.328979 692.481506,785.431824 694.469604,787.479736 
	C697.484924,790.585938 700.589661,793.605286 703.606934,796.709595 
	C705.543518,798.702148 705.761353,800.604065 703.453064,802.663269 
	C680.352478,823.270996 636.940308,818.735596 621.995789,793.774597 
	C607.583069,769.701782 614.291199,727.318848 651.279541,719.212952 
	C670.501221,715.000488 689.835938,719.881287 700.795593,735.472046 
	C703.998352,740.028198 706.152893,745.025879 707.504150,750.838989 
M645.121094,748.662537 
	C640.765564,756.210266 641.007812,756.639954 649.682190,756.645691 
	C659.803650,756.652405 669.925232,756.681458 680.046326,756.616577 
	C681.770813,756.605530 683.740723,757.248779 685.119507,755.544250 
	C684.097473,747.605469 678.674316,741.427734 670.506958,739.279236 
	C660.264038,736.584717 651.928284,739.685303 645.121094,748.662537 
z"/>
<path fill="#000000" opacity="1.000000" stroke="none" 
	d="
M810.333130,785.360229 
	C805.382019,767.762512 806.839783,751.354919 817.264771,736.444092 
	C824.844299,725.603271 835.577637,720.121582 848.725220,718.512695 
	C860.343506,717.091003 871.346252,718.333923 881.354858,724.408813 
	C894.377991,732.313538 899.722473,744.904419 901.324463,759.462952 
	C901.633362,762.270081 901.809998,765.093689 901.980347,767.913757 
	C902.334229,773.770264 901.223450,774.975952 895.341736,774.972473 
	C876.190491,774.961060 857.039246,774.911621 837.888000,774.893372 
	C836.925415,774.892456 835.962646,775.047302 834.460388,775.175720 
	C835.143616,781.459229 838.211060,785.972290 842.854187,789.384216 
	C852.682922,796.606506 867.557739,796.359680 877.512024,789.032410 
	C883.593384,784.555908 883.719482,784.562561 888.919983,790.051392 
	C889.950439,791.138916 890.909424,792.294189 891.941467,793.380066 
	C898.831543,800.629333 898.835083,800.625977 890.409302,806.365662 
	C871.778992,819.056824 843.235107,818.671936 825.017273,805.470642 
	C818.076721,800.441223 813.020386,794.013550 810.333130,785.360229 
M870.322388,756.650391 
	C872.653381,756.196655 875.880005,757.976135 877.178528,755.327515 
	C878.418945,752.797363 876.276489,750.290405 874.889526,748.060974 
	C869.769104,739.830627 860.032715,736.251404 850.614441,739.060364 
	C841.634888,741.738464 835.025696,748.997253 835.117554,756.650085 
	C846.525513,756.650085 857.948669,756.650085 870.322388,756.650391 
z"/>
<path fill="#000000" opacity="1.000000" stroke="none" 
	d="
M295.676025,719.736206 
	C303.699005,719.944092 301.979584,725.889648 302.617828,731.162109 
	C305.697479,728.671509 307.503632,725.643494 310.346619,723.743530 
	C332.518097,708.927124 363.782410,723.972107 366.353088,750.676270 
	C368.176636,769.619080 366.782410,788.601501 367.271942,807.558899 
	C367.373291,811.484070 365.455841,813.403503 361.505432,813.368225 
	C357.175598,813.329590 352.844543,813.414124 348.514923,813.365479 
	C343.105591,813.304749 341.742706,812.057373 341.699188,806.528931 
	C341.598175,793.705322 341.567596,780.879578 341.701508,768.056702 
	C341.745300,763.860291 341.423248,759.697632 340.507935,755.680847 
	C338.914764,748.689331 334.706696,743.803894 327.484619,742.019104 
	C320.006897,740.171082 313.576874,742.119507 308.581940,747.922974 
	C305.387787,751.634094 303.665863,756.046875 303.225494,761.083374 
	C301.902527,776.214355 302.556458,791.368530 302.344727,806.511719 
	C302.263794,812.299377 301.344818,813.281555 295.717316,813.362732 
	C291.554504,813.422791 287.389771,813.336304 283.226410,813.373291 
	C279.585052,813.405640 277.641937,811.869507 277.646545,808.018433 
	C277.679230,780.704224 277.682922,753.389954 277.639343,726.075867 
	C277.632660,721.873901 279.816559,719.938171 283.725677,719.778870 
	C287.550110,719.622986 291.385437,719.735046 295.676025,719.736206 
z"/>
<path fill="#000000" opacity="1.000000" stroke="none" 
	d="
M393.789978,789.144531 
	C401.722931,793.110718 409.636139,795.189453 418.186554,793.656250 
	C419.646149,793.394470 421.138794,793.121582 422.505096,792.575806 
	C425.279449,791.467590 427.382446,789.656555 427.590607,786.403748 
	C427.811157,782.957520 425.438385,781.343384 422.811005,780.089172 
	C418.572388,778.065613 413.909698,777.463074 409.394623,776.399353 
	C403.876343,775.099426 398.448639,773.521484 393.309601,771.135071 
	C384.500946,767.044678 378.137146,761.107971 377.615082,750.541443 
	C377.004822,738.190369 381.445312,728.319458 392.705353,723.035828 
	C410.549530,714.662659 428.271454,717.073120 445.428223,725.791626 
	C448.378021,727.290649 448.925171,729.614685 447.010193,732.403992 
	C446.916016,732.541199 446.842590,732.693237 446.743195,732.826233 
	C443.962189,736.548584 443.255341,742.204529 439.111603,744.286987 
	C434.618439,746.545105 430.553101,742.034058 426.223816,740.772461 
	C420.488190,739.100952 414.720825,739.022339 408.919586,739.486267 
	C405.102448,739.791443 402.154327,741.980103 401.592255,745.881287 
	C401.050354,749.642395 403.957306,751.447205 406.994751,752.757812 
	C411.763306,754.815430 416.896759,755.498596 421.914093,756.607178 
	C427.945618,757.939880 433.652069,760.056885 439.248108,762.724915 
	C456.495117,770.947815 455.826660,796.009094 443.516754,805.934692 
	C437.659637,810.657471 431.082031,813.713562 423.699005,814.737061 
	C408.110565,816.898132 393.161255,814.884460 379.429138,806.759216 
	C374.169250,803.646973 374.090027,802.551025 377.274963,797.225769 
	C378.385559,795.368835 379.512665,793.520142 380.688110,791.703918 
	C385.571167,784.159241 385.624756,784.154541 393.789978,789.144531 
z"/>
<path fill="#000000" opacity="1.000000" stroke="none" 
	d="
M540.732117,792.331299 
	C546.961548,798.516602 546.910645,799.492004 540.367981,804.444458 
	C516.156494,822.771423 480.906219,817.575500 465.379517,793.484314 
	C450.162903,769.874084 459.500671,723.862976 499.614319,718.567078 
	C514.545593,716.595764 528.472473,718.719971 540.723145,727.990723 
	C546.620422,732.453491 546.648376,734.766113 541.448364,739.991821 
	C538.863403,742.589661 536.028564,744.947937 533.542969,747.633118 
	C530.735779,750.665710 528.587158,750.319580 525.656738,747.517883 
	C513.573853,735.966248 495.636597,738.745544 487.508850,753.222961 
	C481.529846,763.872986 484.312622,779.436096 493.542297,786.965515 
	C503.351685,794.967896 515.645325,794.636353 525.853943,785.841614 
	C529.030029,783.105408 531.612671,783.046753 534.444885,786.093933 
	C536.371277,788.166626 538.460266,790.088196 540.732117,792.331299 
z"/>
<path fill="#000000" opacity="1.000000" stroke="none" 
	d="
M760.648071,784.318726 
	C765.995544,764.189636 773.480042,745.160583 780.611572,726.006714 
	C782.027527,722.203796 784.382629,720.451538 788.495117,720.612915 
	C793.482117,720.808594 798.483582,720.600891 803.477417,720.667542 
	C808.575500,720.735535 809.472656,721.952576 807.490173,726.748718 
	C799.355835,746.427246 791.111633,766.060364 782.894226,785.704468 
	C779.876953,792.917419 776.783569,800.098694 773.798218,807.324768 
	C771.992493,811.695312 768.993591,813.796143 764.113159,813.446106 
	C760.137512,813.160950 756.104553,813.121765 752.135071,813.443420 
	C747.047058,813.855896 744.009460,811.756409 742.148315,807.113281 
	C735.465759,790.442322 728.658508,773.821289 721.890991,757.184387 
	C718.005981,747.633667 714.086182,738.097107 710.220703,728.538452 
	C707.458496,721.707886 708.128479,720.693726 715.302002,720.658997 
	C719.464233,720.638855 723.644287,720.893066 727.784546,720.590393 
	C733.436584,720.177063 736.489563,722.321350 738.490173,727.868713 
	C745.632141,747.671936 752.702209,767.492371 759.041199,788.342285 
	C759.736755,786.700256 760.167786,785.682617 760.648071,784.318726 
z"/>
<path fill="#000000" opacity="1.000000" stroke="none" 
	d="
M581.281006,781.002136 
	C581.286255,789.830750 581.353638,798.160217 581.288086,806.488708 
	C581.243958,812.095703 580.030640,813.272095 574.547058,813.356323 
	C571.049622,813.410034 567.550720,813.373840 564.052429,813.365479 
	C557.269104,813.349304 555.887390,812.264221 556.189209,805.652222 
	C556.462402,799.669067 556.272339,793.709595 556.279175,787.737793 
	C556.301819,767.966492 556.470581,748.195374 556.514465,728.424011 
	C556.530212,721.335449 557.066406,720.684021 564.042297,720.659058 
	C567.540527,720.646606 571.058044,720.884705 574.532471,720.595764 
	C579.438782,720.187744 581.829590,722.001099 581.415955,727.088928 
	C581.354370,727.846436 581.757812,728.641785 581.914124,729.287537 
	C583.490906,729.857910 583.971069,728.697388 584.501648,728.014893 
	C590.510498,720.285828 598.639954,718.090759 607.993164,718.571716 
	C611.548340,718.754639 613.230713,720.215149 613.247437,723.697510 
	C613.270569,728.528259 613.284973,733.358948 613.297363,738.189697 
	C613.306885,741.895386 611.783386,743.528381 607.769470,743.264099 
	C591.944031,742.222168 581.554443,752.049194 581.339478,768.009033 
	C581.283386,772.173035 581.302063,776.338074 581.281006,781.002136 
z"/>
<path fill="#000000" opacity="1.000000" stroke="none" 
	d="
M260.041809,798.907898 
	C260.112549,813.392334 260.112549,813.392273 246.171661,813.376709 
	C234.652161,813.363770 234.651337,813.363831 234.651489,801.901245 
	C234.651825,776.928101 234.640579,751.954895 234.662750,726.981750 
	C234.668304,720.720581 235.649658,719.775024 241.908829,719.720398 
	C245.238312,719.691345 248.568405,719.695251 251.897980,719.718628 
	C259.341583,719.770813 260.367218,720.750488 260.341003,728.003967 
	C260.256195,751.476807 260.142365,774.949463 260.041809,798.907898 
z"/>
<path fill="#000000" opacity="1.000000" stroke="none" 
	d="
M233.740051,691.275757 
	C237.951538,682.342712 245.379196,679.307373 253.482635,682.859619 
	C260.514862,685.942383 264.247284,694.899475 261.518799,702.144897 
	C258.690125,709.656372 250.141571,713.393555 242.159836,710.608154 
	C233.973633,707.751404 230.926270,700.984619 233.740051,691.275757 
z"/>
<path fill="#000000" opacity="1.000000" stroke="none" 
	d="
M350.931549,587.954590 
	C348.684723,590.142395 347.027252,592.591919 342.721436,592.874207 
	C350.224182,580.745056 359.916748,571.119507 369.379913,562.062012 
	C378.708221,553.133545 385.344971,541.155334 396.255188,533.870178 
	C396.837982,534.473572 397.420807,535.076904 398.003601,535.680298 
	C383.472321,553.972961 367.229401,570.750549 350.931549,587.954590 
z"/>
<path fill="#000000" opacity="1.000000" stroke="none" 
	d="
M500.967651,338.996490 
	C504.206299,336.130676 507.077606,333.344269 510.293274,331.038055 
	C511.733368,330.005219 514.044067,328.630066 515.675598,330.718018 
	C517.200195,332.669220 515.723816,334.512573 514.371277,336.004974 
	C509.450409,341.434998 506.691132,348.686615 500.137421,352.752014 
	C497.814941,354.192719 495.403320,357.436493 492.857666,355.482147 
	C489.990356,353.280823 493.030334,350.189972 494.206268,347.980286 
	C495.890869,344.814728 498.516632,342.150055 500.967651,338.996490 
z"/>
<path fill="#000000" opacity="1.000000" stroke="none" 
	d="
M631.609619,543.398560 
	C641.788940,553.751770 653.156982,562.491760 662.404114,574.585938 
	C657.883301,573.921936 622.959412,541.810181 615.648865,532.526855 
	C619.399902,531.679993 622.385315,533.692017 631.609619,543.398560 
z"/>
<path fill="#000000" opacity="1.000000" stroke="none" 
	d="
M477.763092,315.713318 
	C479.984955,313.696228 481.936523,311.857422 484.912445,313.303070 
	C483.562927,321.698578 468.628906,337.110107 461.919189,336.516388 
	C463.819580,327.008026 471.976410,322.440155 477.763092,315.713318 
z"/>
<path fill="#000000" opacity="1.000000" stroke="none" 
	d="
M527.129150,368.459381 
	C524.993286,369.701813 522.909424,371.642303 521.200989,369.210205 
	C519.886414,367.338776 521.630432,365.592499 522.997803,364.048615 
	C530.709900,355.340942 536.713440,350.527161 543.141479,348.047516 
	C545.093384,353.127380 540.349915,359.234406 527.129150,368.459381 
z"/>
<path fill="#000000" opacity="1.000000" stroke="none" 
	d="
M369.357086,329.649109 
	C363.723846,320.277130 354.357880,314.087738 349.194641,303.809509 
	C354.611572,304.523529 380.971893,334.384735 382.711365,341.098236 
	C376.371521,339.197052 375.202637,331.850739 369.357086,329.649109 
z"/>
<path fill="#000000" opacity="1.000000" stroke="none" 
	d="
M629.433716,273.396851 
	C625.681458,276.577087 623.123169,280.667358 618.590820,282.552094 
	C618.070435,276.555389 649.711426,246.063400 658.355164,245.037354 
	C648.308716,254.861511 637.874939,262.900970 629.433716,273.396851 
z"/>
<path fill="#000000" opacity="1.000000" stroke="none" 
	d="
M316.888153,268.079407 
	C322.335266,274.151703 327.970764,279.476166 333.761566,284.723236 
	C337.608337,288.208832 341.971130,292.249481 342.608795,298.477844 
	C331.448090,287.535889 318.875305,278.054535 309.065369,264.905914 
	C313.448761,263.421173 314.593353,266.583862 316.888153,268.079407 
z"/>
<path fill="#000000" opacity="1.000000" stroke="none" 
	d="
M488.302979,426.517639 
	C486.841309,419.928070 492.595032,417.048004 494.885315,411.788055 
	C496.989777,416.644287 493.612976,423.874634 488.302979,426.517639 
z"/>
<path fill="#000000" opacity="1.000000" stroke="none" 
	d="
M541.220947,564.219055 
	C550.362610,551.724121 559.604614,539.806763 572.454651,531.190186 
	C551.215576,557.117676 531.183289,583.921326 510.651764,610.500122 
	C512.774170,606.187195 513.443970,601.282959 516.152100,597.436646 
	C522.547607,588.353088 530.145691,580.153076 535.897400,570.570496 
	C537.240479,568.332886 539.294250,566.521790 541.220947,564.219055 
z"/>
<path fill="#000000" opacity="1.000000" stroke="none" 
	d="
M623.839844,477.832214 
	C617.614807,486.654755 611.248291,494.894226 603.875061,503.057068 
	C601.822998,499.424103 603.612244,497.518921 605.063110,495.630737 
	C613.933777,484.086151 624.090332,473.416168 629.875244,459.765015 
	C631.644409,455.590240 636.700989,454.498413 637.675476,449.434814 
	C639.658936,452.418854 631.151306,468.896057 623.839844,477.832214 
z"/>
<path fill="#000000" opacity="1.000000" stroke="none" 
	d="
M513.643921,489.974701 
	C513.646179,485.845825 513.805115,482.192688 512.885742,478.580536 
	C512.606140,477.482086 512.865051,476.113373 514.502563,476.067810 
	C515.653870,476.035736 516.354553,476.859741 516.561707,477.898712 
	C517.895752,484.589203 516.404663,491.092682 515.754089,498.961487 
	C512.840881,495.611847 513.954834,492.876617 513.643921,489.974701 
z"/>
<path fill="#000000" opacity="1.000000" stroke="none" 
	d="
M599.803101,448.761047 
	C597.792969,448.460358 597.850464,447.412292 598.560791,446.271515 
	C599.684753,444.466400 600.813354,442.650787 602.108521,440.969482 
	C603.321533,439.394806 604.986572,437.548462 606.945251,439.351501 
	C608.692932,440.960236 606.811890,442.664673 605.784241,444.020569 
	C604.289246,445.993103 602.347473,447.516205 599.803101,448.761047 
z"/>
<path fill="#000000" opacity="1.000000" stroke="none" 
	d="
M578.758057,419.850037 
	C580.938721,415.071075 580.938721,415.071075 584.601501,415.075897 
	C585.250061,417.824707 583.541687,419.701996 581.917603,421.365448 
	C580.501465,422.816010 578.950378,422.934296 578.758057,419.850037 
z"/>
<path fill="#000000" opacity="1.000000" stroke="none" 
	d="
M435.225098,517.612610 
	C438.316376,520.216980 442.704224,520.944519 443.583954,525.392395 
	C436.133301,526.404663 399.218597,504.004181 397.426361,497.182678 
	C410.323425,503.449493 421.981201,511.622162 435.225098,517.612610 
z"/>
<path fill="#000000" opacity="1.000000" stroke="none" 
	d="
M427.678833,477.252045 
	C429.475006,478.703888 429.475006,478.703888 430.337555,480.695129 
	C425.307617,481.736115 408.960602,473.286255 406.030243,467.806000 
	C410.133453,468.301147 414.109436,468.300903 417.206909,470.966492 
	C420.271942,473.604156 423.791321,475.341003 427.678833,477.252045 
z"/>
<path fill="#000000" opacity="1.000000" stroke="none" 
	d="
M436.641785,439.989441 
	C438.156952,442.119293 436.864868,443.140350 435.496063,442.438416 
	C429.794495,439.514801 424.289673,436.207428 418.265472,432.786835 
	C422.279114,430.659668 432.872345,435.215820 436.641785,439.989441 
z"/>
<path fill="#000000" opacity="1.000000" stroke="none" 
	d="
M447.776611,529.518799 
	C446.481354,529.009460 445.525757,528.457520 445.674194,527.331360 
	C445.832214,526.132629 446.985962,525.816589 447.958466,526.035095 
	C450.795593,526.672485 454.469543,526.115906 455.128479,530.721863 
	C452.498840,531.653564 450.387512,529.997803 447.776611,529.518799 
z"/>
</svg>